<svg viewBox="0 0 370 68.68431433330863" preserveAspectRatio="xMidYMid meet" class="css-8aabad" id="abddfdgg"><defs id="SvgjsDefs1575"></defs><g id="SvgjsG1576" featurekey="symbolFeature-0" transform="matrix(4.392450977558443,0,0,4.392450977558443,0,23.99979055161583)" fill="#fff"><defs xmlns="http://www.w3.org/2000/svg"></defs><g xmlns="http://www.w3.org/2000/svg"><path class="fil0" d="M-0 1.59777c1.78679,0.0661596 2.02227,1.00406 4.40631,0.053922 1.95075,-0.777376 3.4272,-0.793342 5.33331,0.187197 -2.10525,-0.339498 -2.78435,-0.463404 -4.88033,0.300204 -1.69309,0.616853 -3.28485,0.565034 -4.85929,-0.541324zm13.2924 2.86284c1.38409,-0.671061 1.82178,-0.211386 3.72683,-1.37884 0.945261,-0.579375 1.3971,-0.869636 2.43032,-1.26134l-0.103829 0.0496197c1.30923,-0.464265 2.10372,-0.488071 3.42061,-0.0311677 -0.313015,0.0239972 -1.28275,0.0926426 -1.66891,0.149624 -2.82125,0.416366 -4.52085,3.06954 -7.80502,2.4721zm-10.8997 0.211003c1.67283,-1.5711 4.29827,-2.82938 6.43861,-2.27237 2.20497,0.57383 4.62917,1.04842 6.8459,0.428986 0.387302,-0.108226 1.24422,-0.414836 1.65122,-0.3264 -0.426883,0.372961 -1.0292,0.651845 -1.51574,0.878527 -2.11816,0.987136 -5.08502,0.894685 -7.25548,0.117787 -1.96194,-0.702229 -4.33623,0.57861 -6.16451,1.17347zm9.69134 -4.36969c2.33968,-0.394185 3.26372,0.625075 5.06054,0.305845l0.256416 -0.0044935c-1.27271,1.21927 -3.88697,0.0837512 -5.31696,-0.301351zm-8.55553 0.78359c1.62426,-1.20607 3.11648,-1.13112 4.96647,-1.03972l-0.0737126 -0.0175916c1.91337,0.116735 3.65025,1.81528 6.43565,1.66891 1.65982,-0.0872887 3.61909,-1.05702 5.29927,-1.21439 -0.77403,0.643814 -2.53032,1.30484 -3.41869,1.62034 -5.2248,1.85591 -5.54135,-1.00932 -9.67308,-1.36 -1.88985,-0.160332 -2.01519,0.296954 -3.53591,0.342462z" style="fill: #fff;"></path></g></g><g id="SvgjsG1577" featurekey="nameFeature-0" transform="matrix(2.265313820073468,0,0,2.265313820073468,115.19753712106045,-23.649881812118327)" fill="#fff"><path d="M25.2 27.439999999999998 l-9.72 0 l0 -2.32 l12.32 0 l0 14.88 l-2.32 0 l0 -4.92 c-2 3.44 -5.08 5.68 -10.76 5.68 c-7.28 0 -12.6 -5.08 -12.6 -15.32 c0 -8.44 4.24 -15 13.32 -15 c6.04 0 10.8 2.96 12.04 9.12 l-2.8 0 c-0.96 -4.32 -4.76 -6.8 -9.04 -6.8 c-7.6 0 -10.8 5.6 -10.8 13.76 c0 6.36 3.84 11.92 10.44 11.92 c3.12 0 6.8 -1.32 8.68 -5.04 c0.92 -1.8 1.2 -3.8 1.24 -5.96 z M42.24 40.56 c-5.28 -0.08 -9.6 -3.68 -9.6 -10.92 c0 -6.04 3.2 -10.92 9.6 -10.92 c6.48 0 9.6 4.84 9.6 10.92 c0 6.56 -3.8 10.92 -9.6 10.92 z M49.28 29.64 c-0.04 -4.88 -1.96 -8.76 -7.04 -8.76 c-5.04 0 -7.04 4.28 -7.04 8.76 c0 5.16 2.44 8.76 7.04 8.76 c5.04 0 7.04 -4.32 7.04 -8.76 z M58.48 40 l-2.4 0 l0 -28.8 l2.4 0 l0 17.92 l10.16 -9.84 l3.28 0 l-7.76 7.48 l8.68 13.24 l-2.68 0 l-7.76 -11.56 l-3.92 3.72 l0 7.84 z M79 40 l-2.4 0 l0 -20.72 l2.4 0 l0 20.72 z M79.12 14.760000000000002 l-2.64 0 l0 -3.56 l2.64 0 l0 3.56 z M87.88 40 l-2.4 0 l0 -28.8 l2.4 0 l0 28.8 z M107.55999999999999 32.36 l0 -3.24 c-2.04 0.84 -4.12 1 -6.2 1.16 c-3.64 0.28 -5.84 1.6 -5.84 4.4 c0 2.52 2.2 3.72 4.48 3.72 c3.8 0 7.56 -1.84 7.56 -6.04 z M100.19999999999999 28.36 l3.32 -0.44 c0.88 -0.08 2.36 -0.32 3.16 -0.68 s0.88 -1.44 0.88 -2.16 c0 -2.44 -1.44 -4.2 -5.16 -4.2 c-3.32 0 -5.6 1.08 -6.04 4.68 l-2.44 0 c0.36 -4.88 4 -6.84 8.52 -6.84 c4.2 0 7.52 1.64 7.52 6.44 l0 11.28 c0 1.88 0.48 2.32 2.52 1.6 l0 1.88 c-0.36 0.12 -1.2 0.4 -1.88 0.4 c-0.4 0 -0.72 -0.04 -1.08 -0.12 c-1.6 -0.24 -1.88 -1.64 -1.92 -3.08 c-2 2.24 -4.72 3.44 -7.72 3.44 c-3.64 0 -6.92 -1.96 -6.92 -5.96 c0 -3.48 2.4 -5.6 7.24 -6.24 z"></path></g></svg>